# xmcd
#
# Track frame offsets:
#	150
#	18053
#	31309
#	44662
#	63195
#	81901
#	101279
#	118352
#	137027
#	154042
#	169492
#	181132
#	201119
#	218052
#	233780
#	249150
#	268912
#	282869
#
# Disc length: 4047 seconds
#
# Revision: 1
# Processed by: cddbd v1.5.2PL0 Copyright (c) Steve Scherf et al.
# Submitted via: MusicManager 7.3.0.0 
#
DISCID=f90fcd12
DTITLE=Various Artist - The UK's Americana CD
DYEAR=2008
DGENRE=Country
TTITLE0=Shurman - Country ain't country
TTITLE1=Jesse Dayton/Brennen Leigh - Holdin' our own
TTITLE2=Donna Beasley - No-one here by that name
TTITLE3=Lee Ann Womack - Blame it on me
TTITLE4=Wrights - Planting flowers
TTITLE5=Alvarado - Tennessee rain
TTITLE6=Owen Temple - You want to wear that ring
TTITLE7=Billy Yates - That's why I run
TTITLE8=Josh Turner - Another try
TTITLE9=Rachel Harrington - Truman
TTITLE10=Bill Anderson - Slippin' away
TTITLE11=Sick and Indigent song club - Red wine waltz
TTITLE12=Jeff Dernlan - Weathervane
TTITLE13=Rod Picott - Something in spanish
TTITLE14=Yvonne Lyon - Everything's fine
TTITLE15=Luan Parle - Song for you
TTITLE16=Lisa O'Kane - Got the car running
TTITLE17=Paul Cotton - The sunset kidd
EXTD=
EXTT0=
EXTT1=
EXTT2=
EXTT3=
EXTT4=
EXTT5=
EXTT6=
EXTT7=
EXTT8=
EXTT9=
EXTT10=
EXTT11=
EXTT12=
EXTT13=
EXTT14=
EXTT15=
EXTT16=
EXTT17=
PLAYORDER=
